<?xml version="1.0" encoding="UTF-8"?>
<svg id="Layer_1" xmlns="http://www.w3.org/2000/svg" version="1.1" viewBox="0 0 249 243">
  <!-- Generator: Adobe Illustrator 29.6.1, SVG Export Plug-In . SVG Version: 2.1.1 Build 9)  -->
  <defs>
    <style>
      .st0 {
        fill: #007cd8;
      }
    </style>
  </defs>
  <path class="st0" d="M124,106h41l-50.01,66.99c-1.87.22-.78-2.02-.54-3.04,3.27-14.08,8.25-27.87,11.55-41.95h-42l51.01-68.99c1.8-.24.91,2.18.74,3.23-2.29,14.03-9.06,29.54-11.75,43.76h0Z"/>
  <path class="st0" d="M219.22,97.78c.36.49,5.6,2.84,7.77,5.73,5.27,7.01,4.93,25.18,3.9,33.88-1.93,16.27-25.56,23.47-27.83,9.05-1.11-7.06-1.12-36.8-.11-44,1.06-7.6,2.43-6.43-.49-15.41-22.54-69.34-126.73-70.32-149.22-.3-3.16,9.83-1.22,8.4-.21,16.73,1.08,8.9,1.03,34.1,0,43.05-.66,5.69-5.11,6.03-5.04,7.88,3.89,14.98,11.67,28.58,23.55,38.57,1.91,1.6,9.56,7.33,11.43,7.62,1.58.25,3.13-2.53,4.98-3.14,7.46-2.44,25.61,4.22,26.99,13.12,2.93,18.89-21,17.44-31.3,9.3-3.14-2.48-2.69-6.3-4.66-8.34-2.49-2.56-12.22-7.06-16.44-10.56-7.71-6.39-15.95-16.6-20.41-25.59-2.89-5.82-4.88-16.67-7.32-20.68-1.35-2.22-5.4-3.91-7.25-6.75-3.59-5.51-3.41-30.98-2.09-38,.94-5.03,3.04-7.18,6.61-10.42,1.07-.98,3.31-1.05,4.03-2.19,1.22-1.95,4.35-17.63,6.74-23.02C76.64-2.11,187.59,3.3,215.02,81.48c1.03,2.92,3.71,15.61,4.2,16.29h0Z"/>
</svg>